<?xml version="1.0" standalone="no"?>
 <!DOCTYPE svg PUBLIC "-//W3C//DTD SVG 1.1//EN" 
 "http://www.w3.org/Graphics/SVG/1.1/DTD/svg11.dtd"> 
<svg
  xmlns:svg="http://www.w3.org/2000/svg"
  xmlns="http://www.w3.org/2000/svg"
  xmlns:xlink="http://www.w3.org/1999/xlink"
  version="1.1"
  width="279.4000mm" height="215.9000mm" viewBox="0.0000 0.0000 279.4000 215.9000">
<title>SVG Image created as SnapSerial Driver-F_Paste.svg date 2025/09/13 14:24:32 </title>
  <desc>Image generated by PCBNEW </desc>
<g style="fill:#000000; fill-opacity:1.0000;stroke:#000000; stroke-opacity:1.0000;
stroke-linecap:round; stroke-linejoin:round;"
 transform="translate(0 0) scale(1 1)">
<path style="fill:#000000; fill-opacity:1.0000; stroke:none;fill-rule:evenodd;"
d="M 147.4050,111.9797
147.4236,111.8865
147.4764,111.8074
147.5555,111.7546
147.6488,111.7360
148.1362,111.7360
148.2295,111.7546
148.3086,111.8074
148.3614,111.8865
148.3800,111.9797
148.3800,112.8922
148.3614,112.9855
148.3086,113.0646
148.2295,113.1174
148.1362,113.1360
147.6488,113.1360
147.5555,113.1174
147.4764,113.0646
147.4236,112.9855
147.4050,112.8922
Z" /> 
<path style="fill:#000000; fill-opacity:1.0000; stroke:none;fill-rule:evenodd;"
d="M 149.2800,111.9797
149.2986,111.8865
149.3514,111.8074
149.4305,111.7546
149.5238,111.7360
150.0112,111.7360
150.1045,111.7546
150.1836,111.8074
150.2364,111.8865
150.2550,111.9797
150.2550,112.8922
150.2364,112.9855
150.1836,113.0646
150.1045,113.1174
150.0112,113.1360
149.5238,113.1360
149.4305,113.1174
149.3514,113.0646
149.2986,112.9855
149.2800,112.8922
Z" /> 
<path style="fill:#000000; fill-opacity:1.0000; stroke:none;fill-rule:evenodd;"
d="M 148.3050,96.4860
148.4007,96.5050
148.4818,96.5592
148.5360,96.6403
148.5550,96.7360
148.5550,97.2360
148.5360,97.3317
148.4818,97.4128
148.4007,97.4670
148.3050,97.4860
147.3550,97.4860
147.2593,97.4670
147.1782,97.4128
147.1240,97.3317
147.1050,97.2360
147.1050,96.7360
147.1240,96.6403
147.1782,96.5592
147.2593,96.5050
147.3550,96.4860
Z" /> 
<path style="fill:#000000; fill-opacity:1.0000; stroke:none;fill-rule:evenodd;"
d="M 148.3050,98.3860
148.4007,98.4050
148.4818,98.4592
148.5360,98.5403
148.5550,98.6360
148.5550,99.1360
148.5360,99.2317
148.4818,99.3128
148.4007,99.3670
148.3050,99.3860
147.3550,99.3860
147.2593,99.3670
147.1782,99.3128
147.1240,99.2317
147.1050,99.1360
147.1050,98.6360
147.1240,98.5403
147.1782,98.4592
147.2593,98.4050
147.3550,98.3860
Z" /> 
<path style="fill:#000000; fill-opacity:1.0000; stroke:none;fill-rule:evenodd;"
d="M 150.2550,110.7860
150.2360,110.8817
150.1818,110.9628
150.1007,111.0170
150.0050,111.0360
149.4800,111.0360
149.3843,111.0170
149.3032,110.9628
149.2490,110.8817
149.2300,110.7860
149.2300,109.8860
149.2490,109.7903
149.3032,109.7092
149.3843,109.6550
149.4800,109.6360
150.0050,109.6360
150.1007,109.6550
150.1818,109.7092
150.2360,109.7903
150.2550,109.8860
Z" /> 
<path style="fill:#000000; fill-opacity:1.0000; stroke:none;fill-rule:evenodd;"
d="M 148.4300,110.7860
148.4110,110.8817
148.3568,110.9628
148.2757,111.0170
148.1800,111.0360
147.6550,111.0360
147.5593,111.0170
147.4782,110.9628
147.4240,110.8817
147.4050,110.7860
147.4050,109.8860
147.4240,109.7903
147.4782,109.7092
147.5593,109.6550
147.6550,109.6360
148.1800,109.6360
148.2757,109.6550
148.3568,109.7092
148.4110,109.7903
148.4300,109.8860
Z" /> 
<path style="fill:#000000; fill-opacity:1.0000; stroke:none;fill-rule:evenodd;"
d="M 150.8550,111.0360
150.8740,110.9403
150.9282,110.8592
151.0093,110.8050
151.1050,110.7860
151.7550,110.7860
151.8507,110.8050
151.9318,110.8592
151.9860,110.9403
152.0050,111.0360
152.0050,112.3360
151.9860,112.4317
151.9318,112.5128
151.8507,112.5670
151.7550,112.5860
151.1050,112.5860
151.0093,112.5670
150.9282,112.5128
150.8740,112.4317
150.8550,112.3360
Z" /> 
<path style="fill:#000000; fill-opacity:1.0000; stroke:none;fill-rule:evenodd;"
d="M 153.8050,111.0360
153.8240,110.9403
153.8782,110.8592
153.9593,110.8050
154.0550,110.7860
154.7050,110.7860
154.8007,110.8050
154.8818,110.8592
154.9360,110.9403
154.9550,111.0360
154.9550,112.3360
154.9360,112.4317
154.8818,112.5128
154.8007,112.5670
154.7050,112.5860
154.0550,112.5860
153.9593,112.5670
153.8782,112.5128
153.8240,112.4317
153.8050,112.3360
Z" /> 
<path style="fill:#000000; fill-opacity:1.0000; stroke:none;fill-rule:evenodd;"
d="M 147.3550,102.8860
147.2593,102.8670
147.1782,102.8128
147.1240,102.7317
147.1050,102.6360
147.1050,102.1360
147.1240,102.0403
147.1782,101.9592
147.2593,101.9050
147.3550,101.8860
148.3050,101.8860
148.4007,101.9050
148.4818,101.9592
148.5360,102.0403
148.5550,102.1360
148.5550,102.6360
148.5360,102.7317
148.4818,102.8128
148.4007,102.8670
148.3050,102.8860
Z" /> 
<path style="fill:#000000; fill-opacity:1.0000; stroke:none;fill-rule:evenodd;"
d="M 147.3550,100.9860
147.2593,100.9670
147.1782,100.9128
147.1240,100.8317
147.1050,100.7360
147.1050,100.2360
147.1240,100.1403
147.1782,100.0592
147.2593,100.0050
147.3550,99.9860
148.3050,99.9860
148.4007,100.0050
148.4818,100.0592
148.5360,100.1403
148.5550,100.2360
148.5550,100.7360
148.5360,100.8317
148.4818,100.9128
148.4007,100.9670
148.3050,100.9860
Z" /> 
<path style="fill:#000000; fill-opacity:1.0000; stroke:none;fill-rule:evenodd;"
d="M 150.7575,100.8020
150.6647,100.7835
150.5860,100.7310
150.5335,100.6523
150.5150,100.5595
150.5150,100.0745
150.5335,99.9817
150.5860,99.9030
150.6647,99.8505
150.7575,99.8320
151.6025,99.8320
151.6953,99.8505
151.7740,99.9030
151.8265,99.9817
151.8450,100.0745
151.8450,100.5595
151.8265,100.6523
151.7740,100.7310
151.6953,100.7835
151.6025,100.8020
Z" /> 
<path style="fill:#000000; fill-opacity:1.0000; stroke:none;fill-rule:evenodd;"
d="M 152.4075,100.8020
152.3147,100.7835
152.2360,100.7310
152.1835,100.6523
152.1650,100.5595
152.1650,100.0745
152.1835,99.9817
152.2360,99.9030
152.3147,99.8505
152.4075,99.8320
153.2525,99.8320
153.3453,99.8505
153.4240,99.9030
153.4765,99.9817
153.4950,100.0745
153.4950,100.5595
153.4765,100.6523
153.4240,100.7310
153.3453,100.7835
153.2525,100.8020
Z" /> 
<path style="fill:#000000; fill-opacity:1.0000; stroke:none;fill-rule:evenodd;"
d="M 150.7575,99.6020
150.6647,99.5835
150.5860,99.5310
150.5335,99.4523
150.5150,99.3595
150.5150,98.8745
150.5335,98.7817
150.5860,98.7030
150.6647,98.6505
150.7575,98.6320
151.6025,98.6320
151.6953,98.6505
151.7740,98.7030
151.8265,98.7817
151.8450,98.8745
151.8450,99.3595
151.8265,99.4523
151.7740,99.5310
151.6953,99.5835
151.6025,99.6020
Z" /> 
<path style="fill:#000000; fill-opacity:1.0000; stroke:none;fill-rule:evenodd;"
d="M 152.4075,99.6020
152.3147,99.5835
152.2360,99.5310
152.1835,99.4523
152.1650,99.3595
152.1650,98.8745
152.1835,98.7817
152.2360,98.7030
152.3147,98.6505
152.4075,98.6320
153.2525,98.6320
153.3453,98.6505
153.4240,98.7030
153.4765,98.7817
153.4950,98.8745
153.4950,99.3595
153.4765,99.4523
153.4240,99.5310
153.3453,99.5835
153.2525,99.6020
Z" /> 
<path style="fill:#000000; fill-opacity:1.0000; stroke:none;fill-rule:evenodd;"
d="M 149.9500,103.1670
149.8926,103.1556
149.8439,103.1231
149.8114,103.0744
149.8000,103.0170
149.8000,101.3670
149.8114,101.3096
149.8439,101.2609
149.8926,101.2284
149.9500,101.2170
150.2500,101.2170
150.3074,101.2284
150.3561,101.2609
150.3886,101.3096
150.4000,101.3670
150.4000,103.0170
150.3886,103.0744
150.3561,103.1231
150.3074,103.1556
150.2500,103.1670
Z" /> 
<path style="fill:#000000; fill-opacity:1.0000; stroke:none;fill-rule:evenodd;"
d="M 151.2200,103.1670
151.1626,103.1556
151.1139,103.1231
151.0814,103.0744
151.0700,103.0170
151.0700,101.3670
151.0814,101.3096
151.1139,101.2609
151.1626,101.2284
151.2200,101.2170
151.5200,101.2170
151.5774,101.2284
151.6261,101.2609
151.6586,101.3096
151.6700,101.3670
151.6700,103.0170
151.6586,103.0744
151.6261,103.1231
151.5774,103.1556
151.5200,103.1670
Z" /> 
<path style="fill:#000000; fill-opacity:1.0000; stroke:none;fill-rule:evenodd;"
d="M 152.4900,103.1670
152.4326,103.1556
152.3839,103.1231
152.3514,103.0744
152.3400,103.0170
152.3400,101.3670
152.3514,101.3096
152.3839,101.2609
152.4326,101.2284
152.4900,101.2170
152.7900,101.2170
152.8474,101.2284
152.8961,101.2609
152.9286,101.3096
152.9400,101.3670
152.9400,103.0170
152.9286,103.0744
152.8961,103.1231
152.8474,103.1556
152.7900,103.1670
Z" /> 
<path style="fill:#000000; fill-opacity:1.0000; stroke:none;fill-rule:evenodd;"
d="M 153.7600,103.1670
153.7026,103.1556
153.6539,103.1231
153.6214,103.0744
153.6100,103.0170
153.6100,101.3670
153.6214,101.3096
153.6539,101.2609
153.7026,101.2284
153.7600,101.2170
154.0600,101.2170
154.1174,101.2284
154.1661,101.2609
154.1986,101.3096
154.2100,101.3670
154.2100,103.0170
154.1986,103.0744
154.1661,103.1231
154.1174,103.1556
154.0600,103.1670
Z" /> 
<path style="fill:#000000; fill-opacity:1.0000; stroke:none;fill-rule:evenodd;"
d="M 153.7600,98.2170
153.7026,98.2056
153.6539,98.1731
153.6214,98.1244
153.6100,98.0670
153.6100,96.4170
153.6214,96.3596
153.6539,96.3109
153.7026,96.2784
153.7600,96.2670
154.0600,96.2670
154.1174,96.2784
154.1661,96.3109
154.1986,96.3596
154.2100,96.4170
154.2100,98.0670
154.1986,98.1244
154.1661,98.1731
154.1174,98.2056
154.0600,98.2170
Z" /> 
<path style="fill:#000000; fill-opacity:1.0000; stroke:none;fill-rule:evenodd;"
d="M 152.4900,98.2170
152.4326,98.2056
152.3839,98.1731
152.3514,98.1244
152.3400,98.0670
152.3400,96.4170
152.3514,96.3596
152.3839,96.3109
152.4326,96.2784
152.4900,96.2670
152.7900,96.2670
152.8474,96.2784
152.8961,96.3109
152.9286,96.3596
152.9400,96.4170
152.9400,98.0670
152.9286,98.1244
152.8961,98.1731
152.8474,98.2056
152.7900,98.2170
Z" /> 
<path style="fill:#000000; fill-opacity:1.0000; stroke:none;fill-rule:evenodd;"
d="M 151.2200,98.2170
151.1626,98.2056
151.1139,98.1731
151.0814,98.1244
151.0700,98.0670
151.0700,96.4170
151.0814,96.3596
151.1139,96.3109
151.1626,96.2784
151.2200,96.2670
151.5200,96.2670
151.5774,96.2784
151.6261,96.3109
151.6586,96.3596
151.6700,96.4170
151.6700,98.0670
151.6586,98.1244
151.6261,98.1731
151.5774,98.2056
151.5200,98.2170
Z" /> 
<path style="fill:#000000; fill-opacity:1.0000; stroke:none;fill-rule:evenodd;"
d="M 149.9500,98.2170
149.8926,98.2056
149.8439,98.1731
149.8114,98.1244
149.8000,98.0670
149.8000,96.4170
149.8114,96.3596
149.8439,96.3109
149.8926,96.2784
149.9500,96.2670
150.2500,96.2670
150.3074,96.2784
150.3561,96.3109
150.3886,96.3596
150.4000,96.4170
150.4000,98.0670
150.3886,98.1244
150.3561,98.1731
150.3074,98.2056
150.2500,98.2170
Z" /> 
<path style="fill:#000000; fill-opacity:1.0000; stroke:none;fill-rule:evenodd;"
d="M 146.4050,105.4610
146.4240,105.3653
146.4782,105.2842
146.5593,105.2300
146.6550,105.2110
147.2050,105.2110
147.3007,105.2300
147.3818,105.2842
147.4360,105.3653
147.4550,105.4610
147.4550,106.0110
147.4360,106.1067
147.3818,106.1878
147.3007,106.2420
147.2050,106.2610
146.6550,106.2610
146.5593,106.2420
146.4782,106.1878
146.4240,106.1067
146.4050,106.0110
Z" /> 
<path style="fill:#000000; fill-opacity:1.0000; stroke:none;fill-rule:evenodd;"
d="M 146.4050,106.7610
146.4240,106.6653
146.4782,106.5842
146.5593,106.5300
146.6550,106.5110
147.2050,106.5110
147.3007,106.5300
147.3818,106.5842
147.4360,106.6653
147.4550,106.7610
147.4550,107.3110
147.4360,107.4067
147.3818,107.4878
147.3007,107.5420
147.2050,107.5610
146.6550,107.5610
146.5593,107.5420
146.4782,107.4878
146.4240,107.4067
146.4050,107.3110
Z" /> 
<path style="fill:#000000; fill-opacity:1.0000; stroke:none;fill-rule:evenodd;"
d="M 147.7050,105.4610
147.7240,105.3653
147.7782,105.2842
147.8593,105.2300
147.9550,105.2110
148.5050,105.2110
148.6007,105.2300
148.6818,105.2842
148.7360,105.3653
148.7550,105.4610
148.7550,106.0110
148.7360,106.1067
148.6818,106.1878
148.6007,106.2420
148.5050,106.2610
147.9550,106.2610
147.8593,106.2420
147.7782,106.1878
147.7240,106.1067
147.7050,106.0110
Z" /> 
<path style="fill:#000000; fill-opacity:1.0000; stroke:none;fill-rule:evenodd;"
d="M 147.7050,106.7610
147.7240,106.6653
147.7782,106.5842
147.8593,106.5300
147.9550,106.5110
148.5050,106.5110
148.6007,106.5300
148.6818,106.5842
148.7360,106.6653
148.7550,106.7610
148.7550,107.3110
148.7360,107.4067
148.6818,107.4878
148.6007,107.5420
148.5050,107.5610
147.9550,107.5610
147.8593,107.5420
147.7782,107.4878
147.7240,107.4067
147.7050,107.3110
Z" /> 
<path style="fill:#000000; fill-opacity:1.0000; stroke:none;fill-rule:evenodd;"
d="M 145.2300,105.0735
145.2348,105.0496
145.2483,105.0293
145.2686,105.0158
145.2925,105.0110
145.9925,105.0110
146.0164,105.0158
146.0367,105.0293
146.0502,105.0496
146.0550,105.0735
146.0550,105.1985
146.0502,105.2224
146.0367,105.2427
146.0164,105.2562
145.9925,105.2610
145.2925,105.2610
145.2686,105.2562
145.2483,105.2427
145.2348,105.2224
145.2300,105.1985
Z" /> 
<path style="fill:#000000; fill-opacity:1.0000; stroke:none;fill-rule:evenodd;"
d="M 145.2300,105.5735
145.2348,105.5496
145.2483,105.5293
145.2686,105.5158
145.2925,105.5110
145.9925,105.5110
146.0164,105.5158
146.0367,105.5293
146.0502,105.5496
146.0550,105.5735
146.0550,105.6985
146.0502,105.7224
146.0367,105.7427
146.0164,105.7562
145.9925,105.7610
145.2925,105.7610
145.2686,105.7562
145.2483,105.7427
145.2348,105.7224
145.2300,105.6985
Z" /> 
<path style="fill:#000000; fill-opacity:1.0000; stroke:none;fill-rule:evenodd;"
d="M 145.2300,106.0735
145.2348,106.0496
145.2483,106.0293
145.2686,106.0158
145.2925,106.0110
145.9925,106.0110
146.0164,106.0158
146.0367,106.0293
146.0502,106.0496
146.0550,106.0735
146.0550,106.1985
146.0502,106.2224
146.0367,106.2427
146.0164,106.2562
145.9925,106.2610
145.2925,106.2610
145.2686,106.2562
145.2483,106.2427
145.2348,106.2224
145.2300,106.1985
Z" /> 
<path style="fill:#000000; fill-opacity:1.0000; stroke:none;fill-rule:evenodd;"
d="M 145.2300,106.5735
145.2348,106.5496
145.2483,106.5293
145.2686,106.5158
145.2925,106.5110
145.9925,106.5110
146.0164,106.5158
146.0367,106.5293
146.0502,106.5496
146.0550,106.5735
146.0550,106.6985
146.0502,106.7224
146.0367,106.7427
146.0164,106.7562
145.9925,106.7610
145.2925,106.7610
145.2686,106.7562
145.2483,106.7427
145.2348,106.7224
145.2300,106.6985
Z" /> 
<path style="fill:#000000; fill-opacity:1.0000; stroke:none;fill-rule:evenodd;"
d="M 145.2300,107.0735
145.2348,107.0496
145.2483,107.0293
145.2686,107.0158
145.2925,107.0110
145.9925,107.0110
146.0164,107.0158
146.0367,107.0293
146.0502,107.0496
146.0550,107.0735
146.0550,107.1985
146.0502,107.2224
146.0367,107.2427
146.0164,107.2562
145.9925,107.2610
145.2925,107.2610
145.2686,107.2562
145.2483,107.2427
145.2348,107.2224
145.2300,107.1985
Z" /> 
<path style="fill:#000000; fill-opacity:1.0000; stroke:none;fill-rule:evenodd;"
d="M 145.2300,107.5735
145.2348,107.5496
145.2483,107.5293
145.2686,107.5158
145.2925,107.5110
145.9925,107.5110
146.0164,107.5158
146.0367,107.5293
146.0502,107.5496
146.0550,107.5735
146.0550,107.6985
146.0502,107.7224
146.0367,107.7427
146.0164,107.7562
145.9925,107.7610
145.2925,107.7610
145.2686,107.7562
145.2483,107.7427
145.2348,107.7224
145.2300,107.6985
Z" /> 
<path style="fill:#000000; fill-opacity:1.0000; stroke:none;fill-rule:evenodd;"
d="M 146.2050,107.9735
146.2098,107.9496
146.2233,107.9293
146.2436,107.9158
146.2675,107.9110
146.3925,107.9110
146.4164,107.9158
146.4367,107.9293
146.4502,107.9496
146.4550,107.9735
146.4550,108.6735
146.4502,108.6974
146.4367,108.7177
146.4164,108.7312
146.3925,108.7360
146.2675,108.7360
146.2436,108.7312
146.2233,108.7177
146.2098,108.6974
146.2050,108.6735
Z" /> 
<path style="fill:#000000; fill-opacity:1.0000; stroke:none;fill-rule:evenodd;"
d="M 146.7050,107.9735
146.7098,107.9496
146.7233,107.9293
146.7436,107.9158
146.7675,107.9110
146.8925,107.9110
146.9164,107.9158
146.9367,107.9293
146.9502,107.9496
146.9550,107.9735
146.9550,108.6735
146.9502,108.6974
146.9367,108.7177
146.9164,108.7312
146.8925,108.7360
146.7675,108.7360
146.7436,108.7312
146.7233,108.7177
146.7098,108.6974
146.7050,108.6735
Z" /> 
<path style="fill:#000000; fill-opacity:1.0000; stroke:none;fill-rule:evenodd;"
d="M 147.2050,107.9735
147.2098,107.9496
147.2233,107.9293
147.2436,107.9158
147.2675,107.9110
147.3925,107.9110
147.4164,107.9158
147.4367,107.9293
147.4502,107.9496
147.4550,107.9735
147.4550,108.6735
147.4502,108.6974
147.4367,108.7177
147.4164,108.7312
147.3925,108.7360
147.2675,108.7360
147.2436,108.7312
147.2233,108.7177
147.2098,108.6974
147.2050,108.6735
Z" /> 
<path style="fill:#000000; fill-opacity:1.0000; stroke:none;fill-rule:evenodd;"
d="M 147.7050,107.9735
147.7098,107.9496
147.7233,107.9293
147.7436,107.9158
147.7675,107.9110
147.8925,107.9110
147.9164,107.9158
147.9367,107.9293
147.9502,107.9496
147.9550,107.9735
147.9550,108.6735
147.9502,108.6974
147.9367,108.7177
147.9164,108.7312
147.8925,108.7360
147.7675,108.7360
147.7436,108.7312
147.7233,108.7177
147.7098,108.6974
147.7050,108.6735
Z" /> 
<path style="fill:#000000; fill-opacity:1.0000; stroke:none;fill-rule:evenodd;"
d="M 148.2050,107.9735
148.2098,107.9496
148.2233,107.9293
148.2436,107.9158
148.2675,107.9110
148.3925,107.9110
148.4164,107.9158
148.4367,107.9293
148.4502,107.9496
148.4550,107.9735
148.4550,108.6735
148.4502,108.6974
148.4367,108.7177
148.4164,108.7312
148.3925,108.7360
148.2675,108.7360
148.2436,108.7312
148.2233,108.7177
148.2098,108.6974
148.2050,108.6735
Z" /> 
<path style="fill:#000000; fill-opacity:1.0000; stroke:none;fill-rule:evenodd;"
d="M 148.7050,107.9735
148.7098,107.9496
148.7233,107.9293
148.7436,107.9158
148.7675,107.9110
148.8925,107.9110
148.9164,107.9158
148.9367,107.9293
148.9502,107.9496
148.9550,107.9735
148.9550,108.6735
148.9502,108.6974
148.9367,108.7177
148.9164,108.7312
148.8925,108.7360
148.7675,108.7360
148.7436,108.7312
148.7233,108.7177
148.7098,108.6974
148.7050,108.6735
Z" /> 
<path style="fill:#000000; fill-opacity:1.0000; stroke:none;fill-rule:evenodd;"
d="M 149.1050,107.5735
149.1098,107.5496
149.1233,107.5293
149.1436,107.5158
149.1675,107.5110
149.8675,107.5110
149.8914,107.5158
149.9117,107.5293
149.9252,107.5496
149.9300,107.5735
149.9300,107.6985
149.9252,107.7224
149.9117,107.7427
149.8914,107.7562
149.8675,107.7610
149.1675,107.7610
149.1436,107.7562
149.1233,107.7427
149.1098,107.7224
149.1050,107.6985
Z" /> 
<path style="fill:#000000; fill-opacity:1.0000; stroke:none;fill-rule:evenodd;"
d="M 149.1050,107.0735
149.1098,107.0496
149.1233,107.0293
149.1436,107.0158
149.1675,107.0110
149.8675,107.0110
149.8914,107.0158
149.9117,107.0293
149.9252,107.0496
149.9300,107.0735
149.9300,107.1985
149.9252,107.2224
149.9117,107.2427
149.8914,107.2562
149.8675,107.2610
149.1675,107.2610
149.1436,107.2562
149.1233,107.2427
149.1098,107.2224
149.1050,107.1985
Z" /> 
<path style="fill:#000000; fill-opacity:1.0000; stroke:none;fill-rule:evenodd;"
d="M 149.1050,106.5735
149.1098,106.5496
149.1233,106.5293
149.1436,106.5158
149.1675,106.5110
149.8675,106.5110
149.8914,106.5158
149.9117,106.5293
149.9252,106.5496
149.9300,106.5735
149.9300,106.6985
149.9252,106.7224
149.9117,106.7427
149.8914,106.7562
149.8675,106.7610
149.1675,106.7610
149.1436,106.7562
149.1233,106.7427
149.1098,106.7224
149.1050,106.6985
Z" /> 
<path style="fill:#000000; fill-opacity:1.0000; stroke:none;fill-rule:evenodd;"
d="M 149.1050,106.0735
149.1098,106.0496
149.1233,106.0293
149.1436,106.0158
149.1675,106.0110
149.8675,106.0110
149.8914,106.0158
149.9117,106.0293
149.9252,106.0496
149.9300,106.0735
149.9300,106.1985
149.9252,106.2224
149.9117,106.2427
149.8914,106.2562
149.8675,106.2610
149.1675,106.2610
149.1436,106.2562
149.1233,106.2427
149.1098,106.2224
149.1050,106.1985
Z" /> 
<path style="fill:#000000; fill-opacity:1.0000; stroke:none;fill-rule:evenodd;"
d="M 149.1050,105.5735
149.1098,105.5496
149.1233,105.5293
149.1436,105.5158
149.1675,105.5110
149.8675,105.5110
149.8914,105.5158
149.9117,105.5293
149.9252,105.5496
149.9300,105.5735
149.9300,105.6985
149.9252,105.7224
149.9117,105.7427
149.8914,105.7562
149.8675,105.7610
149.1675,105.7610
149.1436,105.7562
149.1233,105.7427
149.1098,105.7224
149.1050,105.6985
Z" /> 
<path style="fill:#000000; fill-opacity:1.0000; stroke:none;fill-rule:evenodd;"
d="M 149.1050,105.0735
149.1098,105.0496
149.1233,105.0293
149.1436,105.0158
149.1675,105.0110
149.8675,105.0110
149.8914,105.0158
149.9117,105.0293
149.9252,105.0496
149.9300,105.0735
149.9300,105.1985
149.9252,105.2224
149.9117,105.2427
149.8914,105.2562
149.8675,105.2610
149.1675,105.2610
149.1436,105.2562
149.1233,105.2427
149.1098,105.2224
149.1050,105.1985
Z" /> 
<path style="fill:#000000; fill-opacity:1.0000; stroke:none;fill-rule:evenodd;"
d="M 148.7050,104.0985
148.7098,104.0746
148.7233,104.0543
148.7436,104.0408
148.7675,104.0360
148.8925,104.0360
148.9164,104.0408
148.9367,104.0543
148.9502,104.0746
148.9550,104.0985
148.9550,104.7985
148.9502,104.8224
148.9367,104.8427
148.9164,104.8562
148.8925,104.8610
148.7675,104.8610
148.7436,104.8562
148.7233,104.8427
148.7098,104.8224
148.7050,104.7985
Z" /> 
<path style="fill:#000000; fill-opacity:1.0000; stroke:none;fill-rule:evenodd;"
d="M 148.2050,104.0985
148.2098,104.0746
148.2233,104.0543
148.2436,104.0408
148.2675,104.0360
148.3925,104.0360
148.4164,104.0408
148.4367,104.0543
148.4502,104.0746
148.4550,104.0985
148.4550,104.7985
148.4502,104.8224
148.4367,104.8427
148.4164,104.8562
148.3925,104.8610
148.2675,104.8610
148.2436,104.8562
148.2233,104.8427
148.2098,104.8224
148.2050,104.7985
Z" /> 
<path style="fill:#000000; fill-opacity:1.0000; stroke:none;fill-rule:evenodd;"
d="M 147.7050,104.0985
147.7098,104.0746
147.7233,104.0543
147.7436,104.0408
147.7675,104.0360
147.8925,104.0360
147.9164,104.0408
147.9367,104.0543
147.9502,104.0746
147.9550,104.0985
147.9550,104.7985
147.9502,104.8224
147.9367,104.8427
147.9164,104.8562
147.8925,104.8610
147.7675,104.8610
147.7436,104.8562
147.7233,104.8427
147.7098,104.8224
147.7050,104.7985
Z" /> 
<path style="fill:#000000; fill-opacity:1.0000; stroke:none;fill-rule:evenodd;"
d="M 147.2050,104.0985
147.2098,104.0746
147.2233,104.0543
147.2436,104.0408
147.2675,104.0360
147.3925,104.0360
147.4164,104.0408
147.4367,104.0543
147.4502,104.0746
147.4550,104.0985
147.4550,104.7985
147.4502,104.8224
147.4367,104.8427
147.4164,104.8562
147.3925,104.8610
147.2675,104.8610
147.2436,104.8562
147.2233,104.8427
147.2098,104.8224
147.2050,104.7985
Z" /> 
<path style="fill:#000000; fill-opacity:1.0000; stroke:none;fill-rule:evenodd;"
d="M 146.7050,104.0985
146.7098,104.0746
146.7233,104.0543
146.7436,104.0408
146.7675,104.0360
146.8925,104.0360
146.9164,104.0408
146.9367,104.0543
146.9502,104.0746
146.9550,104.0985
146.9550,104.7985
146.9502,104.8224
146.9367,104.8427
146.9164,104.8562
146.8925,104.8610
146.7675,104.8610
146.7436,104.8562
146.7233,104.8427
146.7098,104.8224
146.7050,104.7985
Z" /> 
<path style="fill:#000000; fill-opacity:1.0000; stroke:none;fill-rule:evenodd;"
d="M 146.2050,104.0985
146.2098,104.0746
146.2233,104.0543
146.2436,104.0408
146.2675,104.0360
146.3925,104.0360
146.4164,104.0408
146.4367,104.0543
146.4502,104.0746
146.4550,104.0985
146.4550,104.7985
146.4502,104.8224
146.4367,104.8427
146.4164,104.8562
146.3925,104.8610
146.2675,104.8610
146.2436,104.8562
146.2233,104.8427
146.2098,104.8224
146.2050,104.7985
Z" /> 
<path style="fill:#000000; fill-opacity:1.0000; stroke:none;fill-rule:evenodd;"
d="M 142.6575,100.7100
142.5647,100.6915
142.4860,100.6390
142.4335,100.5603
142.4150,100.4675
142.4150,99.9825
142.4335,99.8897
142.4860,99.8110
142.5647,99.7585
142.6575,99.7400
143.5025,99.7400
143.5953,99.7585
143.6740,99.8110
143.7265,99.8897
143.7450,99.9825
143.7450,100.4675
143.7265,100.5603
143.6740,100.6390
143.5953,100.6915
143.5025,100.7100
Z" /> 
<path style="fill:#000000; fill-opacity:1.0000; stroke:none;fill-rule:evenodd;"
d="M 144.3075,100.7100
144.2147,100.6915
144.1360,100.6390
144.0835,100.5603
144.0650,100.4675
144.0650,99.9825
144.0835,99.8897
144.1360,99.8110
144.2147,99.7585
144.3075,99.7400
145.1525,99.7400
145.2453,99.7585
145.3240,99.8110
145.3765,99.8897
145.3950,99.9825
145.3950,100.4675
145.3765,100.5603
145.3240,100.6390
145.2453,100.6915
145.1525,100.7100
Z" /> 
<path style="fill:#000000; fill-opacity:1.0000; stroke:none;fill-rule:evenodd;"
d="M 142.6575,99.5100
142.5647,99.4915
142.4860,99.4390
142.4335,99.3603
142.4150,99.2675
142.4150,98.7825
142.4335,98.6897
142.4860,98.6110
142.5647,98.5585
142.6575,98.5400
143.5025,98.5400
143.5953,98.5585
143.6740,98.6110
143.7265,98.6897
143.7450,98.7825
143.7450,99.2675
143.7265,99.3603
143.6740,99.4390
143.5953,99.4915
143.5025,99.5100
Z" /> 
<path style="fill:#000000; fill-opacity:1.0000; stroke:none;fill-rule:evenodd;"
d="M 144.3075,99.5100
144.2147,99.4915
144.1360,99.4390
144.0835,99.3603
144.0650,99.2675
144.0650,98.7825
144.0835,98.6897
144.1360,98.6110
144.2147,98.5585
144.3075,98.5400
145.1525,98.5400
145.2453,98.5585
145.3240,98.6110
145.3765,98.6897
145.3950,98.7825
145.3950,99.2675
145.3765,99.3603
145.3240,99.4390
145.2453,99.4915
145.1525,99.5100
Z" /> 
<path style="fill:#000000; fill-opacity:1.0000; stroke:none;fill-rule:evenodd;"
d="M 141.8500,103.0750
141.7926,103.0636
141.7439,103.0311
141.7114,102.9824
141.7000,102.9250
141.7000,101.2750
141.7114,101.2176
141.7439,101.1689
141.7926,101.1364
141.8500,101.1250
142.1500,101.1250
142.2074,101.1364
142.2561,101.1689
142.2886,101.2176
142.3000,101.2750
142.3000,102.9250
142.2886,102.9824
142.2561,103.0311
142.2074,103.0636
142.1500,103.0750
Z" /> 
<path style="fill:#000000; fill-opacity:1.0000; stroke:none;fill-rule:evenodd;"
d="M 143.1200,103.0750
143.0626,103.0636
143.0139,103.0311
142.9814,102.9824
142.9700,102.9250
142.9700,101.2750
142.9814,101.2176
143.0139,101.1689
143.0626,101.1364
143.1200,101.1250
143.4200,101.1250
143.4774,101.1364
143.5261,101.1689
143.5586,101.2176
143.5700,101.2750
143.5700,102.9250
143.5586,102.9824
143.5261,103.0311
143.4774,103.0636
143.4200,103.0750
Z" /> 
<path style="fill:#000000; fill-opacity:1.0000; stroke:none;fill-rule:evenodd;"
d="M 144.3900,103.0750
144.3326,103.0636
144.2839,103.0311
144.2514,102.9824
144.2400,102.9250
144.2400,101.2750
144.2514,101.2176
144.2839,101.1689
144.3326,101.1364
144.3900,101.1250
144.6900,101.1250
144.7474,101.1364
144.7961,101.1689
144.8286,101.2176
144.8400,101.2750
144.8400,102.9250
144.8286,102.9824
144.7961,103.0311
144.7474,103.0636
144.6900,103.0750
Z" /> 
<path style="fill:#000000; fill-opacity:1.0000; stroke:none;fill-rule:evenodd;"
d="M 145.6600,103.0750
145.6026,103.0636
145.5539,103.0311
145.5214,102.9824
145.5100,102.9250
145.5100,101.2750
145.5214,101.2176
145.5539,101.1689
145.6026,101.1364
145.6600,101.1250
145.9600,101.1250
146.0174,101.1364
146.0661,101.1689
146.0986,101.2176
146.1100,101.2750
146.1100,102.9250
146.0986,102.9824
146.0661,103.0311
146.0174,103.0636
145.9600,103.0750
Z" /> 
<path style="fill:#000000; fill-opacity:1.0000; stroke:none;fill-rule:evenodd;"
d="M 145.6600,98.1250
145.6026,98.1136
145.5539,98.0811
145.5214,98.0324
145.5100,97.9750
145.5100,96.3250
145.5214,96.2676
145.5539,96.2189
145.6026,96.1864
145.6600,96.1750
145.9600,96.1750
146.0174,96.1864
146.0661,96.2189
146.0986,96.2676
146.1100,96.3250
146.1100,97.9750
146.0986,98.0324
146.0661,98.0811
146.0174,98.1136
145.9600,98.1250
Z" /> 
<path style="fill:#000000; fill-opacity:1.0000; stroke:none;fill-rule:evenodd;"
d="M 144.3900,98.1250
144.3326,98.1136
144.2839,98.0811
144.2514,98.0324
144.2400,97.9750
144.2400,96.3250
144.2514,96.2676
144.2839,96.2189
144.3326,96.1864
144.3900,96.1750
144.6900,96.1750
144.7474,96.1864
144.7961,96.2189
144.8286,96.2676
144.8400,96.3250
144.8400,97.9750
144.8286,98.0324
144.7961,98.0811
144.7474,98.1136
144.6900,98.1250
Z" /> 
<path style="fill:#000000; fill-opacity:1.0000; stroke:none;fill-rule:evenodd;"
d="M 143.1200,98.1250
143.0626,98.1136
143.0139,98.0811
142.9814,98.0324
142.9700,97.9750
142.9700,96.3250
142.9814,96.2676
143.0139,96.2189
143.0626,96.1864
143.1200,96.1750
143.4200,96.1750
143.4774,96.1864
143.5261,96.2189
143.5586,96.2676
143.5700,96.3250
143.5700,97.9750
143.5586,98.0324
143.5261,98.0811
143.4774,98.1136
143.4200,98.1250
Z" /> 
<path style="fill:#000000; fill-opacity:1.0000; stroke:none;fill-rule:evenodd;"
d="M 141.8500,98.1250
141.7926,98.1136
141.7439,98.0811
141.7114,98.0324
141.7000,97.9750
141.7000,96.3250
141.7114,96.2676
141.7439,96.2189
141.7926,96.1864
141.8500,96.1750
142.1500,96.1750
142.2074,96.1864
142.2561,96.2189
142.2886,96.2676
142.3000,96.3250
142.3000,97.9750
142.2886,98.0324
142.2561,98.0811
142.2074,98.1136
142.1500,98.1250
Z" /> 
<path style="fill:#000000; fill-opacity:1.0000; stroke:none;fill-rule:evenodd;"
d="M 144.1800,109.7360
144.2374,109.7474
144.2861,109.7799
144.3186,109.8286
144.3300,109.8860
144.3300,110.9110
144.3186,110.9684
144.2861,111.0171
144.2374,111.0496
144.1800,111.0610
143.8800,111.0610
143.8226,111.0496
143.7739,111.0171
143.7414,110.9684
143.7300,110.9110
143.7300,109.8860
143.7414,109.8286
143.7739,109.7799
143.8226,109.7474
143.8800,109.7360
Z" /> 
<path style="fill:#000000; fill-opacity:1.0000; stroke:none;fill-rule:evenodd;"
d="M 143.2300,109.7360
143.2874,109.7474
143.3361,109.7799
143.3686,109.8286
143.3800,109.8860
143.3800,110.9110
143.3686,110.9684
143.3361,111.0171
143.2874,111.0496
143.2300,111.0610
142.9300,111.0610
142.8726,111.0496
142.8239,111.0171
142.7914,110.9684
142.7800,110.9110
142.7800,109.8860
142.7914,109.8286
142.8239,109.7799
142.8726,109.7474
142.9300,109.7360
Z" /> 
<path style="fill:#000000; fill-opacity:1.0000; stroke:none;fill-rule:evenodd;"
d="M 142.2800,109.7360
142.3374,109.7474
142.3861,109.7799
142.4186,109.8286
142.4300,109.8860
142.4300,110.9110
142.4186,110.9684
142.3861,111.0171
142.3374,111.0496
142.2800,111.0610
141.9800,111.0610
141.9226,111.0496
141.8739,111.0171
141.8414,110.9684
141.8300,110.9110
141.8300,109.8860
141.8414,109.8286
141.8739,109.7799
141.9226,109.7474
141.9800,109.7360
Z" /> 
<path style="fill:#000000; fill-opacity:1.0000; stroke:none;fill-rule:evenodd;"
d="M 142.2800,112.0110
142.3374,112.0224
142.3861,112.0549
142.4186,112.1036
142.4300,112.1610
142.4300,113.1860
142.4186,113.2434
142.3861,113.2921
142.3374,113.3246
142.2800,113.3360
141.9800,113.3360
141.9226,113.3246
141.8739,113.2921
141.8414,113.2434
141.8300,113.1860
141.8300,112.1610
141.8414,112.1036
141.8739,112.0549
141.9226,112.0224
141.9800,112.0110
Z" /> 
<path style="fill:#000000; fill-opacity:1.0000; stroke:none;fill-rule:evenodd;"
d="M 144.1800,112.0110
144.2374,112.0224
144.2861,112.0549
144.3186,112.1036
144.3300,112.1610
144.3300,113.1860
144.3186,113.2434
144.2861,113.2921
144.2374,113.3246
144.1800,113.3360
143.8800,113.3360
143.8226,113.3246
143.7739,113.2921
143.7414,113.2434
143.7300,113.1860
143.7300,112.1610
143.7414,112.1036
143.7739,112.0549
143.8226,112.0224
143.8800,112.0110
Z" /> 
</g> 
</svg>
